<?xml version="1.0" encoding="UTF-8"?>
<!DOCTYPE svg PUBLIC "-//W3C//DTD SVG 1.1//EN" "http://www.w3.org/Graphics/SVG/1.1/DTD/svg11.dtd">
<svg xmlns="http://www.w3.org/2000/svg" version="1.1" width="64px" height="64px" style="shape-rendering:geometricPrecision; text-rendering:geometricPrecision; image-rendering:optimizeQuality; fill-rule:evenodd; clip-rule:evenodd" xmlns:xlink="http://www.w3.org/1999/xlink">
<g><path style="opacity:0.867" fill="#000000" d="M 14.5,1.5 C 19.1667,1.5 23.8333,1.5 28.5,1.5C 28.6602,3.19919 28.4935,4.86586 28,6.5C 26.221,8.61912 24.3877,10.6191 22.5,12.5C 24.0869,16.5436 23.7536,20.377 21.5,24C 19.9751,25.0086 18.3084,25.5086 16.5,25.5C 16.039,33.8045 19.039,40.4712 25.5,45.5C 27.2063,40.4282 28.5396,35.2615 29.5,30C 39.8333,29.3333 50.1667,29.3333 60.5,30C 61.0968,31.0617 61.4302,32.2284 61.5,33.5C 60,42.5 58.5,51.5 57,60.5C 40.5774,61.4916 24.0774,61.8249 7.5,61.5C 6.82482,55.461 5.82482,49.461 4.5,43.5C 4.47697,41.9334 4.97697,40.6001 6,39.5C 7.31864,41.2495 7.81864,43.2495 7.5,45.5C 12.1582,46.0942 13.8249,44.4275 12.5,40.5C 15.777,34.9975 14.4436,30.9975 8.5,28.5C 7.51968,29.9814 6.35301,31.3147 5,32.5C 3.94066,42.1269 3.10733,51.7935 2.5,61.5C 1.33444,51.5166 1.16777,41.5166 2,31.5C 3.91365,29.2519 5.41365,26.7519 6.5,24C 5.01682,21.1766 3.51682,18.3432 2,15.5C 0.333041,5.66557 4.49971,0.998901 14.5,1.5 Z M 11.5,12.5 C 13.9479,11.5269 16.6146,11.1936 19.5,11.5C 19.6741,13.861 20.0074,16.1944 20.5,18.5C 16.6727,18.4401 16.006,19.6068 18.5,22C 15.3333,22.5 13.5,24.3333 13,27.5C 11.7453,26.7894 10.5786,25.956 9.5,25C 12.2828,21.0081 12.9494,16.8414 11.5,12.5 Z M 15.5,39.5 C 17.4305,42.275 18.0972,45.275 17.5,48.5C 16.3219,45.6092 15.6553,42.6092 15.5,39.5 Z M 11.5,47.5 C 15.3366,51.0751 20.0033,53.2418 25.5,54C 21.3537,55.5951 17.0204,55.9284 12.5,55C 10.189,53.9479 8.85567,52.1146 8.5,49.5C 9.60164,48.8243 10.6016,48.1577 11.5,47.5 Z M 22.5,47.5 C 23.6266,48.1217 24.6266,48.955 25.5,50C 23.5106,50.5192 22.5106,49.6859 22.5,47.5 Z M 9.5,58.5 C 14.3477,57.1863 19.3477,57.1863 24.5,58.5C 19.4489,59.7786 14.4489,59.7786 9.5,58.5 Z"/></g>
<g><path style="opacity:0.979" fill="#000000" d="M 30.5,1.5 C 39.8333,1.5 49.1667,1.5 58.5,1.5C 58.5,8.83333 58.5,16.1667 58.5,23.5C 51.1591,23.3337 43.8258,23.5003 36.5,24C 35.0842,26.2645 33.0842,27.4312 30.5,27.5C 30.5,18.8333 30.5,10.1667 30.5,1.5 Z M 35.5,5.5 C 40.544,5.17252 45.544,5.50585 50.5,6.5C 48,6.83333 45.5,7.16667 43,7.5C 40.0706,7.47523 37.5706,6.80856 35.5,5.5 Z M 36.5,9.5 C 39.5719,9.18259 42.5719,9.51592 45.5,10.5C 44,10.8333 42.5,11.1667 41,11.5C 39.0145,11.4313 37.5145,10.7647 36.5,9.5 Z M 37.5,13.5 C 42.544,13.1725 47.544,13.5059 52.5,14.5C 50,14.8333 47.5,15.1667 45,15.5C 42.0706,15.4752 39.5706,14.8086 37.5,13.5 Z M 35.5,17.5 C 40.2137,17.1734 44.8804,17.5067 49.5,18.5C 47.1667,18.8333 44.8333,19.1667 42.5,19.5C 39.7305,19.4714 37.3972,18.8048 35.5,17.5 Z"/></g>
<g><path style="opacity:0.447" fill="#000000" d="M 14.5,12.5 C 16.3464,12.2222 17.6798,12.8888 18.5,14.5C 16.1671,15.9415 14.8338,15.2748 14.5,12.5 Z"/></g>
</svg>
